<svg width="640" height="360" viewBox="0 0 640 360" fill="none" xmlns="http://www.w3.org/2000/svg">
<style>
#som-1{
    animation: volume 2s infinite;
    opacity: 0;
}

#som-2{
    animation: volume 2s infinite 0.3s;
    opacity: 0;
}

#som-3{
    animation: volume 2s infinite 0.6s;
    opacity: 0;
}

@keyframes volume{
    0%, 100%{
        opacity: 0;
    }
    33%, 66%{
        opacity: 1;
    }
}
</style>

<g id="player-thumb-youtube 1">
<g clip-path="url(#clip0_1_2)">
<g id="player-thumb-youtube">
<path id="fundo" d="M620 0H20C8.9543 0 0 8.9543 0 20V340C0 351.046 8.9543 360 20 360H620C631.046 360 640 351.046 640 340V20C640 8.9543 631.046 0 620 0Z" fill="#7440B6" fill-opacity="0.7"/>
<g id="play-icon">
<path id="volume" fill-rule="evenodd" clip-rule="evenodd" d="M271.582 150.251L271.281 150.496H245.436C243.078 150.496 240.816 151.429 239.148 153.088C237.48 154.748 236.543 156.999 236.543 159.347V200.648C236.543 202.996 237.48 205.247 239.148 206.907C240.816 208.566 243.078 209.499 245.436 209.499H271.285L305.144 237.086C305.222 237.153 305.304 237.216 305.389 237.274C306.912 238.395 308.756 239 310.65 239C313.009 239 315.271 238.068 316.939 236.408C318.606 234.748 319.543 232.497 319.543 230.15V180.027L271.582 150.251ZM319.543 158.787L286.376 138.196L305.137 122.909C305.215 122.842 305.297 122.779 305.381 122.721C306.706 121.751 308.274 121.166 309.913 121.031C311.551 120.895 313.195 121.214 314.662 121.952C316.129 122.69 317.362 123.818 318.224 125.212C319.086 126.605 319.542 128.209 319.543 129.845V158.787Z" fill="white"/>
<path id="som-1" fill-rule="evenodd" clip-rule="evenodd" d="M341.355 193.567C340.529 196.147 339.471 198.724 338.183 201.288C337.723 202.204 337.505 203.223 337.549 204.248C337.593 205.272 337.898 206.269 338.435 207.143C338.972 208.016 339.724 208.735 340.618 209.236C341.512 209.736 342.518 209.998 343.542 209.999C344.655 209.999 345.744 209.69 346.691 209.105C347.638 208.521 348.405 207.685 348.905 206.689C350.005 204.489 350.97 202.275 351.799 200.051L341.355 193.567ZM355.53 181.128L343.059 173.386C342.313 168.424 340.705 163.555 338.202 158.643C337.513 157.227 337.406 155.596 337.905 154.102C338.404 152.609 339.467 151.372 340.868 150.656C342.269 149.94 343.895 149.803 345.395 150.275C346.895 150.747 348.15 151.791 348.89 153.18C353.364 161.966 355.543 170.726 355.543 179.951C355.543 180.344 355.539 180.736 355.53 181.128Z" fill="white"/>
<path id="som-2" fill-rule="evenodd" clip-rule="evenodd" d="M362.043 206.412C360.467 210.277 358.544 214.075 356.314 218.087C355.809 218.99 355.543 220.015 355.543 221.058C355.543 222.101 355.809 223.126 356.314 224.029C356.819 224.933 357.545 225.683 358.419 226.204C359.293 226.725 360.285 227 361.294 227C362.304 227 363.297 226.726 364.172 226.205C365.047 225.683 365.773 224.933 366.278 224.029C368.427 220.16 370.344 216.406 371.988 212.586L362.043 206.412ZM377.342 194.671L366.632 188.022C366.904 185.345 367.044 182.51 367.044 179.466C367.044 163.063 363.116 152.892 356.328 140.867C355.583 139.507 355.387 137.899 355.782 136.391C356.176 134.883 357.13 133.596 358.436 132.809C359.741 132.022 361.295 131.798 362.759 132.186C364.224 132.573 365.482 133.542 366.26 134.881C373.843 148.313 378.543 160.456 378.543 179.466C378.543 185.043 378.127 190.041 377.342 194.671Z" fill="white"/>
<path id="som-3" fill-rule="evenodd" clip-rule="evenodd" d="M382.823 219.313C380.233 225.098 377.085 230.478 373.522 235.862C372.931 236.753 372.597 237.785 372.552 238.848C372.508 239.911 372.756 240.966 373.271 241.902C373.785 242.838 374.546 243.62 375.474 244.165C376.402 244.71 377.462 244.998 378.543 244.999C379.541 244.998 380.523 244.753 381.4 244.285C382.278 243.817 383.023 243.141 383.568 242.317C387.326 236.642 390.463 231.146 393.034 225.652L382.823 219.313ZM399.283 208.293L388.517 201.609C389.829 195.196 390.543 188.103 390.543 180.001C390.543 155.442 383.725 139.887 373.484 124.092C373.06 123.437 372.771 122.706 372.634 121.942C372.497 121.177 372.514 120.393 372.684 119.635C372.854 118.877 373.174 118.159 373.626 117.523C374.078 116.886 374.653 116.344 375.318 115.926C375.983 115.509 376.724 115.224 377.501 115.089C378.277 114.954 379.073 114.97 379.843 115.138C380.613 115.306 381.342 115.621 381.988 116.066C382.634 116.511 383.185 117.077 383.609 117.732C394.971 135.274 402.542 152.576 402.542 180.001C402.542 190.301 401.522 199.515 399.283 208.293Z" fill="white"/>
<g id="barra-mute">
<path id="Vector" d="M426.535 240.375L235.481 121.762C233.669 120.637 233.113 118.257 234.237 116.446C235.362 114.635 237.741 114.078 239.552 115.203L430.607 233.817C432.418 234.941 432.975 237.321 431.85 239.132C430.726 240.943 428.346 241.5 426.535 240.375Z" fill="white"/>
<path id="Vector_2" d="M426.535 240.375L235.481 121.762C233.669 120.637 233.113 118.257 234.237 116.446C235.362 114.635 237.741 114.078 239.552 115.203L430.607 233.817C432.418 234.941 432.975 237.321 431.85 239.132C430.726 240.943 428.346 241.5 426.535 240.375Z" stroke="#7440B6"/>
</g>
</g>
<path id="texto-2" d="M199.197 309.562C197.117 309.562 195.338 309.198 193.861 308.47C192.405 307.742 191.23 306.795 190.336 305.63C189.441 304.466 188.786 303.207 188.37 301.855C187.954 300.482 187.746 299.162 187.746 297.893V297.206C187.746 295.834 187.954 294.461 188.37 293.088C188.807 291.715 189.473 290.467 190.367 289.344C191.261 288.221 192.426 287.316 193.861 286.63C195.297 285.943 197.013 285.6 199.009 285.6C201.048 285.6 202.795 285.954 204.251 286.661C205.707 287.368 206.861 288.356 207.714 289.625C208.567 290.894 209.087 292.391 209.274 294.118H206.154C205.988 292.828 205.572 291.767 204.906 290.935C204.241 290.082 203.398 289.448 202.379 289.032C201.381 288.616 200.257 288.408 199.009 288.408C197.657 288.408 196.472 288.647 195.453 289.126C194.433 289.583 193.581 290.238 192.894 291.091C192.229 291.923 191.719 292.89 191.365 293.993C191.033 295.095 190.866 296.291 190.866 297.581C190.866 298.808 191.033 299.973 191.365 301.075C191.719 302.178 192.239 303.155 192.925 304.008C193.633 304.861 194.506 305.537 195.546 306.036C196.586 306.514 197.803 306.754 199.197 306.754C201.152 306.754 202.795 306.265 204.126 305.287C205.457 304.31 206.269 302.895 206.56 301.044H209.68C209.472 302.604 208.941 304.029 208.089 305.318C207.257 306.608 206.092 307.638 204.594 308.407C203.117 309.177 201.318 309.562 199.197 309.562ZM213.858 309V286.224H216.853V309H213.858ZM211.549 288.595V286.224H216.853V288.595H211.549ZM223.41 309V292.339H226.405V309H223.41ZM220.851 294.71V292.339H226.405V294.71H220.851ZM224.252 289.656C223.586 289.656 223.087 289.479 222.754 289.126C222.442 288.772 222.286 288.325 222.286 287.784C222.286 287.243 222.442 286.796 222.754 286.442C223.087 286.089 223.586 285.912 224.252 285.912C224.918 285.912 225.406 286.089 225.718 286.442C226.051 286.796 226.218 287.243 226.218 287.784C226.218 288.325 226.051 288.772 225.718 289.126C225.406 289.479 224.918 289.656 224.252 289.656ZM244.957 315.24V304.039L246.142 301.668C246.08 303.478 245.716 304.965 245.05 306.13C244.385 307.294 243.522 308.158 242.461 308.719C241.421 309.281 240.277 309.562 239.029 309.562C237.843 309.562 236.751 309.333 235.753 308.875C234.775 308.418 233.922 307.783 233.194 306.972C232.487 306.161 231.936 305.235 231.541 304.195C231.146 303.134 230.948 302.011 230.948 300.826V300.264C230.948 299.078 231.146 297.976 231.541 296.957C231.936 295.938 232.498 295.043 233.226 294.274C233.954 293.483 234.817 292.87 235.815 292.433C236.814 291.996 237.926 291.778 239.154 291.778C240.568 291.778 241.806 292.079 242.866 292.682C243.948 293.286 244.801 294.159 245.425 295.303C246.049 296.447 246.392 297.841 246.454 299.484H245.581V292.339H247.952V315.24H244.957ZM239.559 306.816C240.578 306.816 241.504 306.587 242.336 306.13C243.168 305.672 243.834 305.017 244.333 304.164C244.832 303.29 245.082 302.271 245.082 301.106V299.671C245.082 298.527 244.822 297.56 244.302 296.77C243.802 295.958 243.126 295.345 242.274 294.929C241.442 294.492 240.537 294.274 239.559 294.274C238.436 294.274 237.448 294.534 236.595 295.054C235.763 295.574 235.108 296.312 234.63 297.269C234.172 298.205 233.943 299.297 233.943 300.545C233.943 301.793 234.182 302.895 234.661 303.852C235.139 304.788 235.805 305.516 236.658 306.036C237.51 306.556 238.478 306.816 239.559 306.816ZM259.479 309.499C257.503 309.499 255.985 308.854 254.924 307.565C253.863 306.275 253.333 304.414 253.333 301.98V292.308H256.328V302.573C256.328 303.883 256.681 304.913 257.389 305.662C258.096 306.39 259.053 306.754 260.259 306.754C261.507 306.754 262.526 306.358 263.317 305.568C264.107 304.757 264.502 303.654 264.502 302.261V292.308H267.497V309H265.126V301.855H265.501C265.501 303.498 265.282 304.892 264.845 306.036C264.409 307.159 263.753 308.022 262.88 308.626C262.027 309.208 260.935 309.499 259.604 309.499H259.479ZM280.381 309.562C278.925 309.562 277.666 309.312 276.606 308.813C275.545 308.314 274.682 307.658 274.016 306.847C273.35 306.015 272.851 305.09 272.518 304.07C272.206 303.051 272.05 302.011 272.05 300.95V300.389C272.05 299.307 272.206 298.257 272.518 297.238C272.851 296.218 273.35 295.303 274.016 294.492C274.682 293.66 275.524 293.005 276.543 292.526C277.583 292.027 278.8 291.778 280.194 291.778C282.003 291.778 283.49 292.173 284.655 292.963C285.841 293.733 286.714 294.731 287.276 295.958C287.858 297.186 288.15 298.496 288.15 299.89V301.231H273.361V298.985H285.966L285.279 300.202C285.279 299.016 285.092 297.997 284.718 297.144C284.343 296.27 283.782 295.594 283.033 295.116C282.284 294.638 281.338 294.398 280.194 294.398C279.008 294.398 278.02 294.669 277.23 295.21C276.46 295.75 275.878 296.489 275.482 297.425C275.108 298.361 274.921 299.442 274.921 300.67C274.921 301.855 275.108 302.926 275.482 303.883C275.878 304.819 276.481 305.568 277.292 306.13C278.103 306.67 279.133 306.941 280.381 306.941C281.691 306.941 282.752 306.65 283.563 306.067C284.395 305.485 284.894 304.809 285.061 304.039H287.869C287.64 305.183 287.182 306.171 286.496 307.003C285.81 307.835 284.946 308.47 283.906 308.906C282.866 309.343 281.691 309.562 280.381 309.562ZM299.501 315.24V292.339H301.873V299.546L301.311 299.484C301.415 297.695 301.789 296.239 302.434 295.116C303.1 293.972 303.963 293.13 305.024 292.589C306.085 292.048 307.239 291.778 308.487 291.778C309.693 291.778 310.785 292.006 311.763 292.464C312.761 292.922 313.614 293.546 314.321 294.336C315.029 295.126 315.569 296.042 315.944 297.082C316.318 298.122 316.505 299.224 316.505 300.389V300.95C316.505 302.115 316.308 303.218 315.913 304.258C315.517 305.298 314.956 306.213 314.228 307.003C313.521 307.794 312.668 308.418 311.669 308.875C310.692 309.333 309.61 309.562 308.425 309.562C307.239 309.562 306.105 309.302 305.024 308.782C303.942 308.262 303.048 307.419 302.341 306.254C301.633 305.09 301.228 303.561 301.124 301.668L302.497 304.164V315.24H299.501ZM307.957 306.941C309.08 306.941 310.057 306.681 310.889 306.161C311.721 305.62 312.366 304.882 312.824 303.946C313.281 302.989 313.51 301.897 313.51 300.67C313.51 299.422 313.281 298.33 312.824 297.394C312.366 296.458 311.721 295.73 310.889 295.21C310.057 294.669 309.08 294.398 307.957 294.398C306.958 294.398 306.033 294.627 305.18 295.085C304.327 295.522 303.641 296.166 303.121 297.019C302.621 297.851 302.372 298.86 302.372 300.046V301.481C302.372 302.625 302.632 303.602 303.152 304.414C303.672 305.225 304.358 305.849 305.211 306.286C306.064 306.722 306.979 306.941 307.957 306.941ZM331.09 309V304.008H330.591V298.236C330.591 297.092 330.289 296.229 329.686 295.646C329.104 295.064 328.24 294.773 327.096 294.773C326.452 294.773 325.786 294.783 325.1 294.804C324.413 294.825 323.758 294.846 323.134 294.866C322.51 294.887 321.969 294.918 321.512 294.96V292.339C321.969 292.298 322.448 292.266 322.947 292.246C323.467 292.204 323.997 292.183 324.538 292.183C325.079 292.162 325.599 292.152 326.098 292.152C327.804 292.152 329.197 292.36 330.279 292.776C331.36 293.171 332.161 293.826 332.681 294.742C333.201 295.657 333.461 296.894 333.461 298.454V309H331.09ZM325.63 309.437C324.382 309.437 323.3 309.229 322.385 308.813C321.491 308.376 320.794 307.752 320.295 306.941C319.816 306.13 319.577 305.152 319.577 304.008C319.577 302.822 319.837 301.834 320.357 301.044C320.898 300.254 321.678 299.661 322.697 299.266C323.716 298.85 324.944 298.642 326.379 298.642H330.903V300.888H326.254C325.048 300.888 324.122 301.179 323.477 301.762C322.832 302.344 322.51 303.093 322.51 304.008C322.51 304.923 322.832 305.662 323.477 306.223C324.122 306.785 325.048 307.066 326.254 307.066C326.961 307.066 327.637 306.941 328.282 306.691C328.927 306.421 329.457 305.984 329.873 305.381C330.31 304.757 330.549 303.904 330.591 302.822L331.402 304.008C331.298 305.194 331.007 306.192 330.528 307.003C330.071 307.794 329.426 308.397 328.594 308.813C327.783 309.229 326.795 309.437 325.63 309.437ZM338.958 309V292.339H341.33V299.203H341.205C341.205 296.77 341.735 294.991 342.796 293.868C343.878 292.724 345.49 292.152 347.632 292.152H348.194V294.835H347.133C345.469 294.835 344.19 295.282 343.295 296.177C342.401 297.05 341.954 298.319 341.954 299.983V309H338.958ZM361.772 309V304.008H361.273V298.236C361.273 297.092 360.971 296.229 360.368 295.646C359.786 295.064 358.922 294.773 357.778 294.773C357.134 294.773 356.468 294.783 355.782 294.804C355.095 294.825 354.44 294.846 353.816 294.866C353.192 294.887 352.651 294.918 352.194 294.96V292.339C352.651 292.298 353.13 292.266 353.629 292.246C354.149 292.204 354.679 292.183 355.22 292.183C355.761 292.162 356.281 292.152 356.78 292.152C358.486 292.152 359.879 292.36 360.961 292.776C362.042 293.171 362.843 293.826 363.363 294.742C363.883 295.657 364.143 296.894 364.143 298.454V309H361.772ZM356.312 309.437C355.064 309.437 353.982 309.229 353.067 308.813C352.173 308.376 351.476 307.752 350.977 306.941C350.498 306.13 350.259 305.152 350.259 304.008C350.259 302.822 350.519 301.834 351.039 301.044C351.58 300.254 352.36 299.661 353.379 299.266C354.398 298.85 355.626 298.642 357.061 298.642H361.585V300.888H356.936C355.73 300.888 354.804 301.179 354.159 301.762C353.514 302.344 353.192 303.093 353.192 304.008C353.192 304.923 353.514 305.662 354.159 306.223C354.804 306.785 355.73 307.066 356.936 307.066C357.643 307.066 358.319 306.941 358.964 306.691C359.609 306.421 360.139 305.984 360.555 305.381C360.992 304.757 361.231 303.904 361.273 302.822L362.084 304.008C361.98 305.194 361.689 306.192 361.21 307.003C360.753 307.794 360.108 308.397 359.276 308.813C358.465 309.229 357.477 309.437 356.312 309.437ZM384.415 309.562C382.959 309.562 381.68 309.312 380.577 308.813C379.475 308.314 378.539 307.658 377.769 306.847C377.021 306.015 376.449 305.09 376.053 304.07C375.679 303.051 375.492 302.011 375.492 300.95V300.389C375.492 299.328 375.689 298.288 376.085 297.269C376.48 296.229 377.062 295.303 377.832 294.492C378.601 293.66 379.537 293.005 380.64 292.526C381.742 292.027 383.001 291.778 384.415 291.778C385.829 291.778 387.088 292.027 388.19 292.526C389.293 293.005 390.229 293.66 390.998 294.492C391.768 295.303 392.35 296.229 392.745 297.269C393.141 298.288 393.338 299.328 393.338 300.389V300.95C393.338 302.011 393.141 303.051 392.745 304.07C392.371 305.09 391.799 306.015 391.029 306.847C390.281 307.658 389.355 308.314 388.253 308.813C387.15 309.312 385.871 309.562 384.415 309.562ZM384.415 306.878C385.663 306.878 386.724 306.608 387.597 306.067C388.492 305.506 389.168 304.757 389.625 303.821C390.104 302.885 390.343 301.834 390.343 300.67C390.343 299.484 390.104 298.423 389.625 297.487C389.147 296.551 388.461 295.813 387.566 295.272C386.693 294.731 385.642 294.461 384.415 294.461C383.209 294.461 382.158 294.731 381.264 295.272C380.369 295.813 379.683 296.551 379.205 297.487C378.726 298.423 378.487 299.484 378.487 300.67C378.487 301.834 378.716 302.885 379.173 303.821C379.652 304.757 380.328 305.506 381.201 306.067C382.096 306.608 383.167 306.878 384.415 306.878ZM403.596 309.499C401.62 309.499 400.102 308.854 399.041 307.565C397.98 306.275 397.45 304.414 397.45 301.98V292.308H400.445V302.573C400.445 303.883 400.798 304.913 401.506 305.662C402.213 306.39 403.17 306.754 404.376 306.754C405.624 306.754 406.643 306.358 407.434 305.568C408.224 304.757 408.619 303.654 408.619 302.261V292.308H411.614V309H409.243V301.855H409.618C409.618 303.498 409.399 304.892 408.962 306.036C408.526 307.159 407.87 308.022 406.997 308.626C406.144 309.208 405.052 309.499 403.721 309.499H403.596ZM420.972 309L415.294 292.339H418.414L423.967 309H420.972ZM421.721 309V306.629H425.34V309H421.721ZM423.156 309L427.992 292.339H430.925L425.995 309H423.156ZM435.655 309V292.339H438.65V309H435.655ZM433.096 294.71V292.339H438.65V294.71H433.096ZM436.497 289.656C435.832 289.656 435.332 289.479 435 289.126C434.688 288.772 434.532 288.325 434.532 287.784C434.532 287.243 434.688 286.796 435 286.442C435.332 286.089 435.832 285.912 436.497 285.912C437.163 285.912 437.652 286.089 437.964 286.442C438.296 286.796 438.463 287.243 438.463 287.784C438.463 288.325 438.296 288.772 437.964 289.126C437.652 289.479 437.163 289.656 436.497 289.656ZM444.441 309V292.339H446.812V299.203H446.688C446.688 296.77 447.218 294.991 448.279 293.868C449.36 292.724 450.972 292.152 453.115 292.152H453.676V294.835H452.616C450.952 294.835 449.672 295.282 448.778 296.177C447.884 297.05 447.436 298.319 447.436 299.983V309H444.441Z" fill="white"/>
<path id="texto-1" d="M127.421 72.6244C125.299 72.6244 123.51 72.2916 122.054 71.626C120.619 70.9604 119.527 70.0556 118.778 68.9116C118.05 67.7468 117.686 66.4156 117.686 64.918H123.302C123.302 65.4588 123.448 65.958 123.739 66.4156C124.051 66.8524 124.509 67.1956 125.112 67.4452C125.715 67.6948 126.485 67.8196 127.421 67.8196C128.232 67.8196 128.918 67.7156 129.48 67.5076C130.062 67.2996 130.499 67.0084 130.79 66.634C131.102 66.2596 131.258 65.8124 131.258 65.2924C131.258 64.6268 130.978 64.1172 130.416 63.7636C129.854 63.3892 128.908 63.15 127.577 63.046L126.11 62.9212C123.76 62.7132 121.888 61.9748 120.494 60.706C119.101 59.4372 118.404 57.7524 118.404 55.6516C118.404 54.154 118.747 52.8748 119.434 51.814C120.141 50.7532 121.129 49.942 122.398 49.3804C123.666 48.8188 125.164 48.538 126.89 48.538C128.762 48.538 130.343 48.85 131.633 49.474C132.943 50.098 133.942 50.982 134.628 52.126C135.314 53.2492 135.658 54.5596 135.658 56.0572H130.042C130.042 55.558 129.917 55.1004 129.667 54.6844C129.418 54.2684 129.054 53.946 128.575 53.7172C128.118 53.4676 127.556 53.3428 126.89 53.3428C126.266 53.3428 125.736 53.4468 125.299 53.6548C124.883 53.842 124.561 54.1124 124.332 54.466C124.124 54.8196 124.02 55.2148 124.02 55.6516C124.02 56.234 124.218 56.7332 124.613 57.1492C125.008 57.5652 125.694 57.8148 126.672 57.898L128.138 58.0228C129.844 58.1684 131.352 58.5428 132.662 59.146C133.973 59.7284 135.002 60.5292 135.751 61.5484C136.5 62.5676 136.874 63.8156 136.874 65.2924C136.874 66.7692 136.49 68.0588 135.72 69.1612C134.971 70.2636 133.89 71.1164 132.475 71.7196C131.082 72.3228 129.397 72.6244 127.421 72.6244ZM139.875 72.0004V49.2244H145.491V72.0004H139.875ZM144.867 72.0004V67.258H154.477V72.0004H144.867ZM144.867 62.7964V58.054H153.822V62.7964H144.867ZM144.867 53.9668V49.2244H154.29V53.9668H144.867ZM168.074 72.6244C165.89 72.6244 164.038 72.2188 162.52 71.4076C161.022 70.5964 159.878 69.4524 159.088 67.9756C158.298 66.478 157.902 64.71 157.902 62.6716V49.2244H163.706V62.7964C163.706 63.6908 163.872 64.4708 164.205 65.1364C164.558 65.802 165.058 66.3116 165.702 66.6652C166.347 67.0188 167.138 67.1956 168.074 67.1956C169.01 67.1956 169.8 67.0188 170.445 66.6652C171.09 66.3116 171.578 65.8124 171.911 65.1676C172.244 64.502 172.41 63.7116 172.41 62.7964V49.2244H178.214V62.6716C178.214 64.71 177.818 66.478 177.028 67.9756C176.258 69.4524 175.114 70.5964 173.596 71.4076C172.098 72.2188 170.258 72.6244 168.074 72.6244ZM193.707 72.0004L187.093 49.2244H193.083L198.044 67.9132L196.952 67.3828H199.947L198.824 67.9132L203.442 49.2244H209.245L203.067 72.0004H193.707ZM212.24 72.0004V49.2244H218.043V72.0004H212.24ZM212.178 47.5396L216.046 41.7988H222.037L217.606 47.5396H212.178ZM227.899 72.1252V66.6964H231.643C232.621 66.6964 233.494 66.5612 234.264 66.2908C235.054 65.9996 235.72 65.594 236.261 65.074C236.801 64.5332 237.217 63.8884 237.509 63.1396C237.8 62.37 237.945 61.5068 237.945 60.55C237.945 59.5516 237.8 58.678 237.509 57.9292C237.217 57.1596 236.801 56.5252 236.261 56.026C235.72 55.506 235.054 55.1212 234.264 54.8716C233.494 54.6012 232.621 54.466 231.643 54.466H227.899V49.0372H231.393C233.453 49.0372 235.252 49.3284 236.791 49.9108C238.351 50.4932 239.651 51.3044 240.691 52.3444C241.731 53.3636 242.511 54.5492 243.031 55.9012C243.551 57.2532 243.811 58.6884 243.811 60.2068V60.8932C243.811 62.2868 243.551 63.6596 243.031 65.0116C242.511 66.3428 241.731 67.5492 240.691 68.6308C239.651 69.6916 238.351 70.5444 236.791 71.1892C235.252 71.8132 233.453 72.1252 231.393 72.1252H227.899ZM222.72 72.1252V49.0372H228.523V72.1252H222.72ZM247.003 72.0004V49.2244H252.619V72.0004H247.003ZM251.995 72.0004V67.258H261.605V72.0004H251.995ZM251.995 62.7964V58.054H260.95V62.7964H251.995ZM251.995 53.9668V49.2244H261.418V53.9668H251.995ZM276.393 72.6244C274.313 72.6244 272.504 72.2708 270.964 71.5636C269.425 70.8356 268.146 69.8892 267.127 68.7244C266.108 67.5388 265.348 66.2596 264.849 64.8868C264.35 63.514 264.1 62.1828 264.1 60.8932V60.2068C264.1 58.7716 264.36 57.3676 264.88 55.9948C265.4 54.6012 266.18 53.3428 267.22 52.2196C268.26 51.0964 269.54 50.202 271.058 49.5364C272.597 48.8708 274.376 48.538 276.393 48.538C278.39 48.538 280.148 48.8708 281.666 49.5364C283.205 50.202 284.495 51.0964 285.535 52.2196C286.575 53.3428 287.355 54.6012 287.875 55.9948C288.416 57.3676 288.686 58.7716 288.686 60.2068V60.8932C288.686 62.1828 288.426 63.514 287.906 64.8868C287.407 66.2596 286.648 67.5388 285.628 68.7244C284.609 69.8892 283.33 70.8356 281.791 71.5636C280.252 72.2708 278.452 72.6244 276.393 72.6244ZM276.393 67.1956C277.392 67.1956 278.286 67.0292 279.076 66.6964C279.867 66.3636 280.543 65.8956 281.104 65.2924C281.666 64.6892 282.092 63.9924 282.384 63.202C282.675 62.3908 282.82 61.5172 282.82 60.5812C282.82 59.5828 282.664 58.678 282.352 57.8668C282.061 57.0556 281.635 56.3588 281.073 55.7764C280.512 55.194 279.836 54.7468 279.045 54.4348C278.255 54.1228 277.371 53.9668 276.393 53.9668C275.395 53.9668 274.5 54.1228 273.71 54.4348C272.92 54.7468 272.244 55.194 271.682 55.7764C271.12 56.3588 270.694 57.0556 270.403 57.8668C270.112 58.678 269.966 59.5828 269.966 60.5812C269.966 61.5172 270.112 62.3908 270.403 63.202C270.694 63.9924 271.12 64.6892 271.682 65.2924C272.244 65.8956 272.92 66.3636 273.71 66.6964C274.5 67.0292 275.395 67.1956 276.393 67.1956ZM305.826 72.6244C304.016 72.6244 302.467 72.2916 301.177 71.626C299.908 70.9604 298.931 70.0036 298.244 68.7556C297.579 67.4868 297.246 65.958 297.246 64.1692V62.9212H302.987V64.3564C302.987 65.1884 303.226 65.8748 303.704 66.4156C304.204 66.9356 304.9 67.1956 305.795 67.1956C306.689 67.1956 307.376 66.9356 307.854 66.4156C308.353 65.8748 308.603 65.1884 308.603 64.3564V53.6548H314.406V64.1692C314.406 65.958 314.063 67.4868 313.376 68.7556C312.711 70.0036 311.744 70.9604 310.475 71.626C309.206 72.2916 307.656 72.6244 305.826 72.6244ZM299.804 54.2788V49.2244H314.406V54.2788H299.804ZM315.814 72.0004L323.115 49.2244H332.413L339.963 72.0004H333.973L328.107 53.2804L329.761 53.9044H325.642L327.327 53.2804L321.618 72.0004H315.814ZM321.774 66.7276L323.521 61.9852H332.163L333.91 66.7276H321.774ZM324.8 47.5396L328.669 41.7988H334.659L330.229 47.5396H324.8ZM359.53 72.6244C357.471 72.6244 355.703 72.2708 354.226 71.5636C352.749 70.8356 351.532 69.8892 350.576 68.7244C349.619 67.5388 348.912 66.2596 348.454 64.8868C347.996 63.514 347.768 62.1828 347.768 60.8932V60.2068C347.768 58.7716 347.996 57.3676 348.454 55.9948C348.932 54.6012 349.65 53.3428 350.607 52.2196C351.584 51.0964 352.801 50.202 354.257 49.5364C355.713 48.8708 357.419 48.538 359.374 48.538C361.454 48.538 363.295 48.9332 364.896 49.7236C366.519 50.4932 367.819 51.5852 368.796 52.9996C369.774 54.3932 370.346 56.0156 370.512 57.8668H364.709C364.564 57.0764 364.252 56.39 363.773 55.8076C363.295 55.2252 362.681 54.778 361.932 54.466C361.184 54.1332 360.331 53.9668 359.374 53.9668C358.48 53.9668 357.668 54.1228 356.94 54.4348C356.233 54.7468 355.63 55.194 355.131 55.7764C354.652 56.338 354.278 57.0244 354.008 57.8356C353.758 58.6468 353.633 59.562 353.633 60.5812C353.633 61.6004 353.758 62.5156 354.008 63.3268C354.278 64.138 354.663 64.8348 355.162 65.4172C355.682 65.9996 356.306 66.4468 357.034 66.7588C357.762 67.05 358.594 67.1956 359.53 67.1956C360.986 67.1956 362.213 66.842 363.212 66.1348C364.231 65.4276 364.844 64.4812 365.052 63.2956H370.856C370.668 65.0012 370.096 66.5612 369.14 67.9756C368.183 69.39 366.893 70.5236 365.271 71.3764C363.648 72.2084 361.735 72.6244 359.53 72.6244ZM385.075 72.6244C382.995 72.6244 381.186 72.2708 379.646 71.5636C378.107 70.8356 376.828 69.8892 375.809 68.7244C374.79 67.5388 374.03 66.2596 373.531 64.8868C373.032 63.514 372.782 62.1828 372.782 60.8932V60.2068C372.782 58.7716 373.042 57.3676 373.562 55.9948C374.082 54.6012 374.862 53.3428 375.902 52.2196C376.942 51.0964 378.222 50.202 379.74 49.5364C381.279 48.8708 383.058 48.538 385.075 48.538C387.072 48.538 388.83 48.8708 390.348 49.5364C391.887 50.202 393.177 51.0964 394.217 52.2196C395.257 53.3428 396.037 54.6012 396.557 55.9948C397.098 57.3676 397.368 58.7716 397.368 60.2068V60.8932C397.368 62.1828 397.108 63.514 396.588 64.8868C396.089 66.2596 395.33 67.5388 394.31 68.7244C393.291 69.8892 392.012 70.8356 390.473 71.5636C388.934 72.2708 387.134 72.6244 385.075 72.6244ZM385.075 67.1956C386.074 67.1956 386.968 67.0292 387.758 66.6964C388.549 66.3636 389.225 65.8956 389.786 65.2924C390.348 64.6892 390.774 63.9924 391.066 63.202C391.357 62.3908 391.502 61.5172 391.502 60.5812C391.502 59.5828 391.346 58.678 391.034 57.8668C390.743 57.0556 390.317 56.3588 389.755 55.7764C389.194 55.194 388.518 54.7468 387.727 54.4348C386.937 54.1228 386.053 53.9668 385.075 53.9668C384.077 53.9668 383.182 54.1228 382.392 54.4348C381.602 54.7468 380.926 55.194 380.364 55.7764C379.802 56.3588 379.376 57.0556 379.085 57.8668C378.794 58.678 378.648 59.5828 378.648 60.5812C378.648 61.5172 378.794 62.3908 379.085 63.202C379.376 63.9924 379.802 64.6892 380.364 65.2924C380.926 65.8956 381.602 66.3636 382.392 66.6964C383.182 67.0292 384.077 67.1956 385.075 67.1956ZM400.871 72.0004V49.2244H408.92L413.6 61.2364H414.224L418.873 49.2244H427.079V72.0004H421.338V52.5628L422.243 52.6252L416.377 67.414H411.104L405.207 52.6252L406.175 52.5628V72.0004H400.871ZM431.705 72.0004V49.2244H437.321V72.0004H431.705ZM436.697 72.0004V67.258H446.306V72.0004H436.697ZM436.697 62.7964V58.054H445.651V62.7964H436.697ZM436.697 53.9668V49.2244H446.119V53.9668H436.697ZM460.564 72.6244C458.505 72.6244 456.737 72.2708 455.26 71.5636C453.784 70.8356 452.567 69.8892 451.61 68.7244C450.653 67.5388 449.946 66.2596 449.488 64.8868C449.031 63.514 448.802 62.1828 448.802 60.8932V60.2068C448.802 58.7716 449.031 57.3676 449.488 55.9948C449.967 54.6012 450.684 53.3428 451.641 52.2196C452.619 51.0964 453.836 50.202 455.292 49.5364C456.748 48.8708 458.453 48.538 460.408 48.538C462.488 48.538 464.329 48.9332 465.931 49.7236C467.553 50.4932 468.853 51.5852 469.831 52.9996C470.808 54.3932 471.38 56.0156 471.547 57.8668H465.744C465.598 57.0764 465.286 56.39 464.808 55.8076C464.329 55.2252 463.716 54.778 462.967 54.466C462.218 54.1332 461.365 53.9668 460.408 53.9668C459.514 53.9668 458.703 54.1228 457.975 54.4348C457.268 54.7468 456.664 55.194 456.165 55.7764C455.687 56.338 455.312 57.0244 455.042 57.8356C454.792 58.6468 454.668 59.562 454.668 60.5812C454.668 61.6004 454.792 62.5156 455.042 63.3268C455.312 64.138 455.697 64.8348 456.196 65.4172C456.716 65.9996 457.34 66.4468 458.068 66.7588C458.796 67.05 459.628 67.1956 460.564 67.1956C462.02 67.1956 463.248 66.842 464.246 66.1348C465.265 65.4276 465.879 64.4812 466.087 63.2956H471.89C471.703 65.0012 471.131 66.5612 470.174 67.9756C469.217 69.39 467.928 70.5236 466.305 71.3764C464.683 72.2084 462.769 72.6244 460.564 72.6244ZM460.377 80.9236C459.816 80.9236 459.275 80.882 458.755 80.7988C458.256 80.7156 457.86 80.622 457.569 80.518V76.9612C457.881 77.0652 458.245 77.1588 458.661 77.242C459.098 77.3252 459.576 77.3668 460.096 77.3668C460.7 77.3668 461.147 77.3044 461.438 77.1796C461.729 77.0548 461.875 76.8572 461.875 76.5868C461.875 76.3788 461.771 76.2228 461.563 76.1188C461.376 76.0356 461.053 75.994 460.596 75.994H458.786V71.5636H462.405V74.7148L460.315 73.3108H460.72C462.239 73.3108 463.435 73.5916 464.308 74.1532C465.182 74.7148 465.619 75.578 465.619 76.7428C465.619 77.9076 465.172 78.8956 464.277 79.7068C463.383 80.518 462.083 80.9236 460.377 80.9236ZM486.11 72.6244C484.03 72.6244 482.22 72.2708 480.681 71.5636C479.142 70.8356 477.862 69.8892 476.843 68.7244C475.824 67.5388 475.065 66.2596 474.566 64.8868C474.066 63.514 473.817 62.1828 473.817 60.8932V60.2068C473.817 58.7716 474.077 57.3676 474.597 55.9948C475.117 54.6012 475.897 53.3428 476.937 52.2196C477.977 51.0964 479.256 50.202 480.774 49.5364C482.314 48.8708 484.092 48.538 486.11 48.538C488.106 48.538 489.864 48.8708 491.382 49.5364C492.922 50.202 494.211 51.0964 495.251 52.2196C496.291 53.3428 497.071 54.6012 497.591 55.9948C498.132 57.3676 498.402 58.7716 498.402 60.2068V60.8932C498.402 62.1828 498.142 63.514 497.622 64.8868C497.123 66.2596 496.364 67.5388 495.345 68.7244C494.326 69.8892 493.046 70.8356 491.507 71.5636C489.968 72.2708 488.169 72.6244 486.11 72.6244ZM486.11 67.1956C487.108 67.1956 488.002 67.0292 488.793 66.6964C489.583 66.3636 490.259 65.8956 490.821 65.2924C491.382 64.6892 491.809 63.9924 492.1 63.202C492.391 62.3908 492.537 61.5172 492.537 60.5812C492.537 59.5828 492.381 58.678 492.069 57.8668C491.778 57.0556 491.351 56.3588 490.79 55.7764C490.228 55.194 489.552 54.7468 488.762 54.4348C487.971 54.1228 487.087 53.9668 486.11 53.9668C485.111 53.9668 484.217 54.1228 483.426 54.4348C482.636 54.7468 481.96 55.194 481.398 55.7764C480.837 56.3588 480.41 57.0556 480.119 57.8668C479.828 58.678 479.682 59.5828 479.682 60.5812C479.682 61.5172 479.828 62.3908 480.119 63.202C480.41 63.9924 480.837 64.6892 481.398 65.2924C481.96 65.8956 482.636 66.3636 483.426 66.6964C484.217 67.0292 485.111 67.1956 486.11 67.1956ZM511.639 72.6244C509.455 72.6244 507.604 72.2188 506.086 71.4076C504.588 70.5964 503.444 69.4524 502.654 67.9756C501.863 66.478 501.468 64.71 501.468 62.6716V49.2244H507.271V62.7964C507.271 63.6908 507.438 64.4708 507.771 65.1364C508.124 65.802 508.623 66.3116 509.268 66.6652C509.913 67.0188 510.703 67.1956 511.639 67.1956C512.575 67.1956 513.366 67.0188 514.011 66.6652C514.655 66.3116 515.144 65.8124 515.477 65.1676C515.81 64.502 515.976 63.7116 515.976 62.7964V49.2244H521.779V62.6716C521.779 64.71 521.384 66.478 520.594 67.9756C519.824 69.4524 518.68 70.5964 517.162 71.4076C515.664 72.2188 513.823 72.6244 511.639 72.6244Z" fill="white"/>
</g>
</g>
<rect x="1.5" y="1.5" width="637" height="357" rx="10.5" stroke="#ECECEC" stroke-width="3" stroke-linejoin="round"/>
</g>
<defs>
<clipPath id="clip0_1_2">
<rect width="640" height="360" rx="12" fill="white"/>
</clipPath>
</defs>
</svg>
